<?xml version="1.0" encoding="utf-8"?>
<!-- Generator: Adobe Illustrator 25.2.3, SVG Export Plug-In . SVG Version: 6.00 Build 0)  -->
<svg version="1.1" id="Layer_2" xmlns="http://www.w3.org/2000/svg" xmlns:xlink="http://www.w3.org/1999/xlink" x="0px" y="0px"
	 viewBox="0 0 1000 800" style="enable-background:new 0 0 1000 800;" xml:space="preserve">
<style type="text/css">
	.st0{fill:#FF6F27;}
	.st1{fill:#3333FF;}
</style>
<g id="XMLID_127_">
	<g id="XMLID_444_">
		<path id="XMLID_447_" class="st0" d="M878.76,471.6c0,0,8.08-52.98-21.51-83.77c-25.81-26.86-48.89-33.98-95.88-36.09
			c-43.68-1.95-63.92-0.14-92.81,0c-18.53,0.09-226.8,14.75-304.25,0c0,0,47.94,22.13,160.42,21.21
			c93.38-0.77,172.15,0.38,196.2,0.79c4.4,0.08,8.79-0.05,13.18-0.37c14.56-1.06,54.61-2.44,87.49,10.64
			C862.57,400.33,875.07,443.94,878.76,471.6z"/>
	</g>
	<path class="st0" d="M457,302.88c90.64,4.21,165.03,36.88,165.03,36.88s-15.67-15.67-65.46-35.03
		C506.79,285.36,450.24,270,368.49,290.9c-77.3,19.76-62.66,56.05-198.49,49.51c-4.46-0.21-7.37,4.58-5.13,8.43
		c5.78,9.93,11.6,26.79-0.14,44.39c-1.09,1.64-2.06,3.33-2.91,5.06h18.93c2.2-3.05,13.98-20.33,9.79-34.56
		c0,0,52.55-16.6,103.26,0.92c50.71,17.52,163.19,28.58,236.94,21.21c0,0-177.02-8.3-230.49-46.1
		C300.27,339.76,351.3,297.97,457,302.88z"/>
	<g>
		<path class="st1" d="M235.61,432.66h22.68c4.88,6.06,7.32,12.44,7.32,19.16c0,7.81-2.86,14.38-8.58,19.69
			c-5.72,5.31-12.76,7.97-21.12,7.97c-10.86,0-20.08-4.12-27.66-12.36c-7.58-8.24-11.37-18.28-11.37-30.12
			c0-11.87,3.86-21.76,11.57-29.65c7.71-7.89,17.35-11.84,28.92-11.84c3.94,0,8.32,0.8,13.13,2.4v23.79
			c-3.75-1.76-7.17-2.64-10.25-2.64c-5.59,0-10.15,1.74-13.68,5.21c-3.54,3.48-5.3,7.99-5.3,13.54c0,5.66,1.64,10.16,4.92,13.48
			c3.28,3.32,7.71,4.98,13.3,4.98c3.55,0,5.33-1.03,5.33-3.11c0-1.56-1.17-2.34-3.52-2.34h-5.68V432.66z"/>
		<path class="st1" d="M306.09,455.57v22.68c-1.8,0.31-3.44,0.47-4.92,0.47c-8.79,0-16.11-2.89-21.97-8.67
			c-5.86-5.78-8.79-13.03-8.79-21.74c0-8.48,2.96-15.66,8.88-21.56c5.92-5.9,13.11-8.85,21.59-8.85c9.45,0,16.9,2.76,22.35,8.29
			c5.45,5.53,8.17,13.08,8.17,22.65v28.65h-21.91v-27.07c0-3.08-0.75-5.55-2.26-7.38c-1.5-1.84-3.53-2.75-6.06-2.75
			c-2.31,0-4.3,0.84-5.98,2.52c-1.68,1.68-2.52,3.67-2.52,5.98c0,2.42,0.76,4.42,2.29,5.98c1.52,1.56,3.46,2.34,5.8,2.34
			C302.68,457.09,304.45,456.58,306.09,455.57z"/>
		<path class="st1" d="M376.23,418.48v23.44c-1.52-0.86-2.91-1.29-4.16-1.29c-3.98,0-5.98,3.05-5.98,9.14v27.71h-21.91v-31.93
			c0-8.44,2.3-15.17,6.91-20.19c4.61-5.02,10.76-7.53,18.46-7.53C371.27,417.83,373.5,418.05,376.23,418.48z"/>
		<path class="st1" d="M415.14,455.57v22.68c-1.8,0.31-3.44,0.47-4.92,0.47c-8.79,0-16.11-2.89-21.97-8.67
			c-5.86-5.78-8.79-13.03-8.79-21.74c0-8.48,2.96-15.66,8.88-21.56c5.92-5.9,13.11-8.85,21.59-8.85c9.45,0,16.9,2.76,22.35,8.29
			c5.45,5.53,8.17,13.08,8.17,22.65v28.65h-21.91v-27.07c0-3.08-0.75-5.55-2.26-7.38c-1.5-1.84-3.53-2.75-6.06-2.75
			c-2.31,0-4.3,0.84-5.98,2.52c-1.68,1.68-2.52,3.67-2.52,5.98c0,2.42,0.76,4.42,2.29,5.98c1.52,1.56,3.46,2.34,5.8,2.34
			C411.72,457.09,413.5,456.58,415.14,455.57z"/>
		<path class="st1" d="M484.4,453.4v20.1c-3.16,1.17-6.19,1.76-9.08,1.76c-7.07,0-13.06-2.67-17.96-8.03
			c-4.9-5.35-7.35-11.89-7.35-19.63c0-8.36,2.95-15.41,8.85-21.15c5.9-5.74,13.14-8.61,21.74-8.61c4.57,0,8.94,0.92,13.13,2.75
			c4.18,1.84,7.46,4.3,9.84,7.38c3.98,5.12,5.98,12.54,5.98,22.27v19.22c0,10.43-2.96,18.9-8.88,25.4
			c-5.92,6.5-13.62,9.76-23.12,9.76c-2.89,0-6.54-0.72-10.96-2.17v-19.92c2.85,1.56,5.74,2.34,8.67,2.34c3.94,0,6.99-1.3,9.14-3.9
			c2.15-2.6,3.22-6.32,3.22-11.16v-21.97c0-6.13-2.48-9.2-7.44-9.2c-2.11,0-3.96,0.81-5.54,2.43c-1.58,1.62-2.37,3.49-2.37,5.6
			c0,2.23,0.75,4.08,2.26,5.57c1.5,1.49,3.37,2.23,5.6,2.23C481.6,454.45,483.03,454.1,484.4,453.4z"/>
		<path class="st1" d="M579.84,451.82h-33.22c-0.51-1.68-0.76-3.22-0.76-4.63c0-1.95,0.35-3.87,1.05-5.74h11.13
			c-0.78-4.34-3.22-6.5-7.32-6.5c-2.73,0-4.96,1.16-6.68,3.49c-1.72,2.32-2.58,5.3-2.58,8.94c0,3.79,0.83,6.86,2.49,9.2
			s3.84,3.52,6.53,3.52c2.19,0,4.3-1.09,6.33-3.28l12.48,15c-5.82,4.57-12.29,6.86-19.39,6.86c-8.67,0-15.96-2.91-21.86-8.73
			c-5.9-5.82-8.85-13.03-8.85-21.62c0-8.55,2.98-15.78,8.94-21.68c5.96-5.9,13.27-8.85,21.94-8.85c8.48,0,15.6,2.88,21.36,8.64
			c5.76,5.76,8.64,12.86,8.64,21.3C580.08,448.57,580,449.94,579.84,451.82z"/>
		<path class="st1" d="M658.13,397.15v22.79c-1.72-0.59-3.05-0.88-3.98-0.88c-1.8,0-3.34,0.67-4.63,1.99
			c-1.29,1.33-1.93,2.93-1.93,4.8c0,1.6,0.7,3.63,2.11,6.09l1.82,3.16c3.28,5.7,4.92,11.21,4.92,16.52c0,7.77-2.76,14.36-8.29,19.75
			c-5.53,5.39-12.28,8.09-20.24,8.09c-3.83,0-7.62-0.88-11.37-2.64v-23.14c2.26,1.45,4.28,2.17,6.04,2.17c2.07,0,3.8-0.59,5.19-1.79
			c1.39-1.19,2.08-2.69,2.08-4.48c0-1.17-1.11-3.73-3.34-7.68c-3.55-6.25-5.33-12.5-5.33-18.75c0-7.54,2.69-14.03,8.06-19.48
			c5.37-5.45,11.79-8.17,19.25-8.17C651.74,395.51,654.96,396.06,658.13,397.15z"/>
		<path class="st1" d="M701.02,455.57v22.68c-1.8,0.31-3.44,0.47-4.92,0.47c-8.79,0-16.11-2.89-21.97-8.67
			c-5.86-5.78-8.79-13.03-8.79-21.74c0-8.48,2.96-15.66,8.88-21.56c5.92-5.9,13.12-8.85,21.59-8.85c9.45,0,16.9,2.76,22.35,8.29
			c5.45,5.53,8.17,13.08,8.17,22.65v28.65h-21.91v-27.07c0-3.08-0.75-5.55-2.26-7.38c-1.5-1.84-3.53-2.75-6.06-2.75
			c-2.31,0-4.3,0.84-5.98,2.52c-1.68,1.68-2.52,3.67-2.52,5.98c0,2.42,0.76,4.42,2.29,5.98c1.52,1.56,3.46,2.34,5.8,2.34
			C697.6,457.09,699.38,456.58,701.02,455.57z"/>
		<path class="st1" d="M761.02,397.5v79.98H739.1V397.5H761.02z"/>
		<path class="st1" d="M831.27,451.82h-33.22c-0.51-1.68-0.76-3.22-0.76-4.63c0-1.95,0.35-3.87,1.05-5.74h11.13
			c-0.78-4.34-3.22-6.5-7.32-6.5c-2.73,0-4.96,1.16-6.68,3.49c-1.72,2.32-2.58,5.3-2.58,8.94c0,3.79,0.83,6.86,2.49,9.2
			c1.66,2.34,3.84,3.52,6.53,3.52c2.19,0,4.3-1.09,6.33-3.28l12.48,15c-5.82,4.57-12.29,6.86-19.39,6.86
			c-8.67,0-15.96-2.91-21.86-8.73c-5.9-5.82-8.85-13.03-8.85-21.62c0-8.55,2.98-15.78,8.94-21.68c5.96-5.9,13.27-8.85,21.94-8.85
			c8.48,0,15.59,2.88,21.36,8.64c5.76,5.76,8.64,12.86,8.64,21.3C831.5,448.57,831.42,449.94,831.27,451.82z"/>
	</g>
</g>
</svg>
